<mxfile host="65bd71144e" modified="2021-01-20T01:58:35.789Z" agent="5.0 (Windows NT 10.0; Win64; x64) AppleWebKit/537.36 (KHTML, like Gecko) Code/1.52.1 Chrome/83.0.4103.122 Electron/9.3.5 Safari/537.36" version="13.10.0" etag="XIug4llolaPlN1OevCR5" type="embed">
    <diagram id="3yOi1QtiaLE1RX7KjpTg" name="Page-1">
        <mxGraphModel dx="1111" dy="790" grid="1" gridSize="10" guides="1" tooltips="1" connect="1" arrows="1" fold="1" page="1" pageScale="1" pageWidth="850" pageHeight="1400" math="0" shadow="0">
            <root>
                <mxCell id="0"/>
                <mxCell id="1" parent="0"/>
                <mxCell id="2" value="&lt;font color=&quot;#ff8000&quot;&gt;&lt;b&gt;Problem Domain:&lt;br&gt;&lt;/b&gt;&lt;br&gt;Your function shoud take a string as its only argument, and should return a boolean representing whether or not the brackets in the string are balanced. There are 3 types of brackets:&lt;br&gt;&lt;br&gt;Round brackets: ()&lt;br&gt;Square brackets: []&lt;br&gt;Braces (curly brackets: {}&lt;br&gt;&lt;/font&gt;" style="whiteSpace=wrap;html=1;align=left;labelPosition=center;verticalLabelPosition=middle;verticalAlign=top;" vertex="1" parent="1">
                    <mxGeometry x="20" y="20" width="200" height="180" as="geometry"/>
                </mxCell>
                <mxCell id="3" value="" style="whiteSpace=wrap;html=1;align=left;labelPosition=left;verticalLabelPosition=middle;verticalAlign=middle;fontColor=#FF8000;" vertex="1" parent="1">
                    <mxGeometry x="20" y="238" width="170" height="82" as="geometry"/>
                </mxCell>
                <mxCell id="5" value="&lt;font&gt;&lt;b&gt;&lt;font style=&quot;font-size: 14px&quot;&gt;Edge Cases&lt;/font&gt;&lt;/b&gt;&lt;br&gt;&lt;br&gt;If input is missing&lt;br&gt;If input is empty&lt;br&gt;If mismatch is at the beginning&lt;br&gt;&lt;/font&gt;" style="text;html=1;resizable=0;autosize=1;align=left;verticalAlign=middle;points=[];fillColor=none;strokeColor=none;rounded=0;fontColor=#FF8000;" vertex="1" parent="1">
                    <mxGeometry x="20" y="240" width="180" height="80" as="geometry"/>
                </mxCell>
                <mxCell id="6" value="&lt;font&gt;&lt;b style=&quot;font-size: 14px&quot;&gt;Big O&lt;/b&gt;&lt;br&gt;&lt;font style=&quot;font-size: 12px&quot;&gt;Time: O(n)Dependent on input size&lt;br&gt;&lt;/font&gt;Space: O(1)Dependent on input size&lt;br&gt;&lt;/font&gt;" style="whiteSpace=wrap;html=1;fontColor=#FF8000;align=left;verticalAlign=top;" vertex="1" parent="1">
                    <mxGeometry x="20" y="360" width="160" height="90" as="geometry"/>
                </mxCell>
                <mxCell id="7" value="&lt;b&gt;&lt;font style=&quot;font-size: 17px&quot;&gt;Visual&lt;/font&gt;&lt;/b&gt;" style="text;html=1;align=center;verticalAlign=middle;resizable=0;points=[];autosize=1;fontColor=#FF8000;" vertex="1" parent="1">
                    <mxGeometry x="420" y="20" width="70" height="20" as="geometry"/>
                </mxCell>
                <mxCell id="8" value="True&lt;br&gt;{ [ ( ( { } ) ) ] }" style="whiteSpace=wrap;html=1;fontColor=#FF8000;align=center;" vertex="1" parent="1">
                    <mxGeometry x="285" y="50" width="120" height="60" as="geometry"/>
                </mxCell>
                <mxCell id="9" value="False&lt;br&gt;{{{{ [ ( ( ( [ ] ) ) ) ] }" style="whiteSpace=wrap;html=1;fontColor=#FF8000;align=center;" vertex="1" parent="1">
                    <mxGeometry x="490" y="50" width="120" height="60" as="geometry"/>
                </mxCell>
                <mxCell id="10" value="True&lt;br&gt;{ [cwwe( ( ( [efw ] ) )ewffw )wef ] }" style="whiteSpace=wrap;html=1;fontColor=#FF8000;align=center;" vertex="1" parent="1">
                    <mxGeometry x="250" y="130" width="190" height="70" as="geometry"/>
                </mxCell>
                <mxCell id="11" value="True&lt;br&gt;{ [ ( ) ] }" style="whiteSpace=wrap;html=1;fontColor=#FF8000;align=center;" vertex="1" parent="1">
                    <mxGeometry x="490" y="130" width="120" height="70" as="geometry"/>
                </mxCell>
                <mxCell id="12" value="" style="whiteSpace=wrap;html=1;fontColor=#FF8000;align=left;" vertex="1" parent="1">
                    <mxGeometry x="240" y="238" width="310" height="162" as="geometry"/>
                </mxCell>
                <mxCell id="13" value="&lt;font&gt;&lt;b style=&quot;font-size: 14px&quot;&gt;Algorithm&lt;/b&gt;&lt;br&gt;&lt;br&gt;&lt;font style=&quot;font-size: 12px&quot;&gt;Create an emty stack&lt;br&gt;&lt;/font&gt;If no input exists return TypeError&lt;br&gt;Loop through input string&lt;br&gt;In an open char is found append it to the stack&lt;br&gt;If closing bracket is found &amp;amp; if the stack is not empty&lt;br&gt;Remove (pop) and compare thelat item in the stack&lt;br&gt;If opening does not match closing return False&lt;br&gt;Once complete with string if stack is empty return True&lt;br&gt;&lt;/font&gt;" style="text;html=1;resizable=0;autosize=1;align=left;verticalAlign=top;points=[];fillColor=none;strokeColor=none;rounded=0;fontColor=#FF8000;" vertex="1" parent="1">
                    <mxGeometry x="245" y="240" width="300" height="150" as="geometry"/>
                </mxCell>
            </root>
        </mxGraphModel>
    </diagram>
</mxfile>